<svg width="240" height="240" viewBox="0 0 240 240" fill="none" xmlns="http://www.w3.org/2000/svg" role="img" aria-labelledby="title desc">
  <title id="title">StockFlow Icon</title>
  <desc id="desc">StockFlow icon with inventory box, growth bars, and upward flow arrow.</desc>
  <defs>
    <linearGradient id="blue" x1="24" y1="190" x2="210" y2="54" gradientUnits="userSpaceOnUse">
      <stop stop-color="#60A5FA"/>
      <stop offset="0.45" stop-color="#2563EB"/>
      <stop offset="1" stop-color="#0F6BFF"/>
    </linearGradient>
    <linearGradient id="navy" x1="86" y1="72" x2="187" y2="168" gradientUnits="userSpaceOnUse">
      <stop stop-color="#0F172A"/>
      <stop offset="1" stop-color="#1E3A8A"/>
    </linearGradient>
    <filter id="shadow" x="0" y="0" width="240" height="240" filterUnits="userSpaceOnUse" color-interpolation-filters="sRGB">
      <feDropShadow dx="0" dy="8" stdDeviation="10" flood-color="#0F172A" flood-opacity="0.12"/>
    </filter>
  </defs>

  <rect width="240" height="240" rx="54" fill="#F8FAFC"/>
  <g filter="url(#shadow)">
    <rect x="31" y="140" width="17" height="49" rx="5" fill="#93C5FD"/>
    <rect x="58" y="116" width="17" height="73" rx="5" fill="#60A5FA"/>
    <rect x="85" y="88" width="17" height="101" rx="5" fill="#2563EB"/>

    <path d="M110 78L164 106V165L110 137V78Z" fill="url(#navy)"/>
    <path d="M164 106L216 79V138L164 165V106Z" fill="#0B1F3F"/>
    <path d="M110 78L162 52L216 79L164 106L110 78Z" fill="#0F6BFF"/>
    <path d="M134 90L186 64L203 72L150 99L134 90Z" fill="#EFF6FF" opacity="0.95"/>
    <path d="M164 106L164 165" stroke="#EFF6FF" stroke-width="7" stroke-linecap="round"/>
    <path d="M110 78L164 106" stroke="#EFF6FF" stroke-width="7" stroke-linecap="round"/>

    <path d="M31 198C83 213 151 204 199 166" stroke="url(#blue)" stroke-width="12" stroke-linecap="round"/>
    <path d="M196 165L229 151L216 187L205 171L196 165Z" fill="#0F6BFF"/>
  </g>
</svg>
